<?xml version="1.0" encoding="UTF-8" standalone="no"?>
<!-- Created with Inkscape (http://www.inkscape.org/) -->

<svg
   width="1920.8417"
   height="523.39178"
   viewBox="0 0 508.22279 138.48103"
   version="1.1"
   id="svg1"
   xml:space="preserve"
   inkscape:version="1.3.2 (091e20e, 2023-11-25, custom)"
   sodipodi:docname="enemy_base.svg"
   inkscape:export-filename="pozadí.svg"
   inkscape:export-xdpi="96"
   inkscape:export-ydpi="96"
   xmlns:inkscape="http://www.inkscape.org/namespaces/inkscape"
   xmlns:sodipodi="http://sodipodi.sourceforge.net/DTD/sodipodi-0.dtd"
   xmlns="http://www.w3.org/2000/svg"
   xmlns:svg="http://www.w3.org/2000/svg"><sodipodi:namedview
     id="namedview1"
     pagecolor="#ffffff"
     bordercolor="#000000"
     borderopacity="0.25"
     inkscape:showpageshadow="2"
     inkscape:pageopacity="0.0"
     inkscape:pagecheckerboard="0"
     inkscape:deskcolor="#d1d1d1"
     inkscape:document-units="px"
     inkscape:zoom="0.18106587"
     inkscape:cx="947.16912"
     inkscape:cy="665.50366"
     inkscape:window-width="1920"
     inkscape:window-height="1009"
     inkscape:window-x="-8"
     inkscape:window-y="-8"
     inkscape:window-maximized="1"
     inkscape:current-layer="layer1" /><defs
     id="defs1" /><g
     inkscape:label="Vrstva 1"
     inkscape:groupmode="layer"
     id="layer1"
     transform="translate(-1.0613704,1.9201452)"><path
       style="opacity:1;fill:#803300;fill-opacity:1;fill-rule:evenodd;stroke:#00ccff;stroke-width:0.794826;stroke-linecap:square;stroke-miterlimit:10;stroke-dasharray:none;stroke-opacity:1;paint-order:stroke fill markers"
       d="M 1.4581813,-0.90094808 C 12.276422,10.86202 8.670342,2.1676518 18.973428,16.487778 c 10.303085,14.320137 8.24247,2.557169 12.363706,19.434463 4.121233,16.877305 3.090926,15.854431 4.121233,23.014504 1.030309,7.160064 -1.030307,1.534295 -0.515153,13.808695 0.515153,12.2744 -16.48494,17.388726 9.272776,14.320127 25.757718,-3.0686 23.697099,9.20579 25.757718,-3.0686 2.060617,-12.274391 1.030308,-8.694358 3.090924,-18.41159 2.06062,-9.717231 3.090927,-6.648632 3.606079,-20.457336 C 77.185868,31.319346 59.670619,33.365083 78.731332,22.624978 97.792044,11.884883 88.519264,10.86202 101.91328,10.86202 c 13.39401,0 13.39401,-2.0457374 24.21224,0 10.81826,2.045727 4.6364,-4.6029044 14.42433,4.091463 9.78793,8.694368 7.21216,3.0686 11.84854,13.808695 4.6364,10.740105 -10.30308,1.022873 9.27278,15.854432 19.57586,14.831567 10.3031,7.671494 28.84865,20.457335 18.54556,12.785822 -7.72731,7.160063 21.12133,14.320127 28.84863,7.160063 8.24246,15.854425 33.48503,5.625768 25.24255,-10.228663 31.93956,-13.808694 40.69719,-17.900167 8.75762,-4.091464 8.75762,-4.091464 17.00009,-13.808695 8.24249,-9.717232 1.0303,-1.534306 10.30308,-13.808695 9.2728,-12.2744 6.18185,-13.297263 15.9698,-19.945905 9.78792,-6.648631 7.72731,-6.648631 13.39401,-8.182927 5.66669,-1.5343044 11.84855,-5.6257674 24.21223,-2.5571684 12.36372,3.0686004 8.75763,-2.557167 14.42435,6.1372004 5.66668,8.694368 3.09091,1.022863 7.72729,15.343 4.6364,14.320127 0.51519,19.434463 11.3334,26.083094 10.81825,6.648632 -6.18183,3.0686 13.90919,9.717232 20.09101,6.648631 15.96979,14.320127 22.66679,6.648631 6.69701,-7.671495 2.57576,-1.534294 7.7273,-10.228662 5.15156,-8.694369 -5.15154,-1.022874 6.69701,-10.740106 11.84856,-9.717231 10.81824,-8.694358 13.90916,-11.251526 l 3.09094,-2.557169 c 0,0 -6.69701,-3.068599 3.60606,0 10.3031,3.068601 23.69711,3.580032 26.27287,7.160064 2.57578,3.580032 -1.54547,-12.785831 1.54548,9.717231 3.09092,22.503063 9.27279,26.083094 9.27279,26.083094 L 508.37005,136.16315 1.4581814,135.65173 Z"
       id="path3"
       sodipodi:nodetypes="cssssssssssssssssssssssssssssssscssscccc" /><path
       style="opacity:1;fill:#aa4400;fill-opacity:1;fill-rule:evenodd;stroke:none;stroke-width:0.794826;stroke-linecap:square;stroke-miterlimit:10;stroke-dasharray:none;stroke-opacity:1;paint-order:stroke fill markers"
       d="m 118.91336,27.227883 c 11.84856,16.877295 9.27279,8.694368 15.96979,21.4802 6.69701,12.785831 34.51535,21.480189 4.6364,23.014493 -29.87896,1.534296 -29.87896,14.831559 -34.00019,-2.557167 -4.12124,-17.388727 -10.818244,-19.945895 -5.666699,-30.686 5.151539,-10.740094 20.606179,-14.320126 23.697099,-14.320126 3.09093,0 -4.6364,3.0686 -4.6364,3.0686 z"
       id="path4" /><path
       style="opacity:1;fill:#aa4400;fill-opacity:1;fill-rule:evenodd;stroke:none;stroke-width:0.794826;stroke-linecap:square;stroke-miterlimit:10;stroke-dasharray:none;stroke-opacity:1;paint-order:stroke fill markers"
       d="m 333.21758,44.105178 c 2.06062,13.808695 5.15154,19.945894 -4.12125,26.083094 -9.27276,6.137199 -9.27276,19.945894 -15.96977,8.694358 -6.69701,-11.251527 -23.69711,-1.022863 -1.03032,-23.014494 22.66679,-21.991632 24.72741,-32.731726 31.42442,-28.128821 6.69699,4.602895 13.90915,7.160063 9.78794,16.877295 -4.12124,9.717231 -20.09102,-0.511432 -20.09102,-0.511432 z"
       id="path5" /><path
       style="opacity:1;fill:none;fill-opacity:1;fill-rule:evenodd;stroke:none;stroke-width:0.794826;stroke-linecap:square;stroke-miterlimit:10;stroke-dasharray:none;stroke-opacity:1;paint-order:stroke fill markers"
       d="m 166.4721,72.281308 c 12.02088,8.317677 10.01739,-1.627369 15.8457,12.476515 5.82831,14.103874 14.2065,17.901077 4.37123,16.635347 -9.83527,-1.26573 -15.66357,4.15883 -18.21345,-3.797203 -2.54988,-7.956037 -2.73202,-10.84914 -0.72855,-16.273704 2.00349,-5.424573 -1.27493,-9.040955 -1.27493,-9.040955 z"
       id="path8" /><path
       style="opacity:1;fill:#aa4400;fill-opacity:1;fill-rule:evenodd;stroke:none;stroke-width:0.794826;stroke-linecap:square;stroke-miterlimit:10;stroke-dasharray:none;stroke-opacity:1;paint-order:stroke fill markers"
       d="m 182.13567,88.555017 c -6.01044,2.169826 -15.29931,3.073927 -14.75291,7.05194 0.5464,3.97802 3.09629,10.125863 8.74247,13.380603 5.64617,3.25475 11.29234,11.75323 12.93154,4.88212 1.63923,-6.87112 -6.9211,-25.314663 -6.9211,-25.314663 z"
       id="path9" /><path
       style="opacity:1;fill:#aa4400;fill-opacity:1;fill-rule:evenodd;stroke:none;stroke-width:0.794826;stroke-linecap:square;stroke-miterlimit:10;stroke-dasharray:none;stroke-opacity:1;paint-order:stroke fill markers"
       d="m 241.51154,97.053507 c 2.91415,5.062933 25.8631,24.953023 28.95937,24.229753 3.0963,-0.7233 4.00698,-20.97501 3.82483,-22.059933 -0.18211,-1.08491 -32.7842,-2.16982 -32.7842,-2.16982 z"
       id="path10" /><path
       style="opacity:1;fill:#aa4400;fill-opacity:1;fill-rule:evenodd;stroke:none;stroke-width:0.794826;stroke-linecap:square;stroke-miterlimit:10;stroke-dasharray:none;stroke-opacity:1;paint-order:stroke fill markers"
       d="m 355.16349,75.89769 c -0.72854,1.446547 -13.29582,11.934049 -17.30277,14.465519 -4.00696,2.53146 33.69488,16.454521 33.69488,16.454521 0,0 22.76684,-11.572423 10.38167,-23.506464 C 369.55214,71.377217 355.7099,77.163425 355.7099,77.163425 Z"
       id="path11" /><path
       style="opacity:1;fill:#aa4400;fill-opacity:1;fill-rule:evenodd;stroke:none;stroke-width:0.794826;stroke-linecap:square;stroke-miterlimit:10;stroke-dasharray:none;stroke-opacity:1;paint-order:stroke fill markers"
       d="m 393.77602,69.388204 c 6.19257,14.103884 -1.63921,8.860133 12.93156,18.985991 14.57075,10.125862 28.41298,20.975005 32.60208,15.912075 4.18909,-5.062943 -7.28537,-20.794182 -9.28887,-21.51746 -2.00348,-0.723279 -36.24477,-13.380606 -36.24477,-13.380606 z"
       id="path12" /><path
       style="opacity:1;fill:#aa4400;fill-opacity:1;fill-rule:evenodd;stroke:none;stroke-width:0.794826;stroke-linecap:square;stroke-miterlimit:10;stroke-dasharray:none;stroke-opacity:1;paint-order:stroke fill markers"
       d="m 463.71569,60.889715 c 7.64967,11.210781 3.46057,5.786208 13.84224,14.465518 10.38166,8.679312 21.67401,7.232755 20.5812,-1.80819 -1.09282,-9.040946 -3.82482,-15.007976 -5.64618,-16.454523 -1.82133,-1.446556 -10.38167,-4.701294 -13.29582,-3.797204 -2.91415,0.904101 -15.48144,7.594399 -15.48144,7.594399 z"
       id="path13" /><path
       style="opacity:1;fill:#aa4400;fill-opacity:1;fill-rule:evenodd;stroke:none;stroke-width:0.794826;stroke-linecap:square;stroke-miterlimit:10;stroke-dasharray:none;stroke-opacity:1;paint-order:stroke fill markers"
       d="m 358.80619,39.733898 c 10.38168,10.849137 11.29235,13.380606 15.48144,14.646341 4.18911,1.265725 7.64964,-8.860134 5.64616,-11.934059 -2.00348,-3.073916 -21.1276,-2.712282 -21.1276,-2.712282 z"
       id="path14" /><path
       style="opacity:1;fill:#aa4400;fill-opacity:1;fill-rule:evenodd;stroke:none;stroke-width:0.794826;stroke-linecap:square;stroke-miterlimit:10;stroke-dasharray:none;stroke-opacity:1;paint-order:stroke fill markers"
       d="m 300.8874,95.245307 c 5.64616,3.79721 29.68794,21.336653 31.69141,16.273723 2.00348,-5.06293 -14.57076,-20.432543 -15.8457,-20.794187 -1.27494,-0.361634 -15.84571,4.520464 -15.84571,4.520464 z"
       id="path15" /><path
       style="opacity:1;fill:#aa4400;fill-opacity:1;fill-rule:evenodd;stroke:none;stroke-width:0.794826;stroke-linecap:square;stroke-miterlimit:10;stroke-dasharray:none;stroke-opacity:1;paint-order:stroke fill markers"
       d="m 208.90944,89.459108 c 2.54989,4.882119 11.29235,27.303672 19.48839,26.942022 8.19607,-0.36164 4.91765,-21.336623 1.09283,-21.517453 -3.82483,-0.18082 -20.39908,-6.509482 -20.39908,-6.509482 z"
       id="path16" /><path
       style="opacity:1;fill:#aa4400;fill-opacity:1;fill-rule:evenodd;stroke:none;stroke-width:0.794826;stroke-linecap:square;stroke-miterlimit:10;stroke-dasharray:none;stroke-opacity:1;paint-order:stroke fill markers"
       d="m 39.342169,104.10545 c 25.863107,6.87113 29.870069,7.95604 52.272621,8.86012 22.40254,0.90411 40.61601,3.97802 42.43736,-3.61637 1.82134,-7.5944 9.83526,-26.942024 -19.67053,-21.698283 -29.505809,5.243752 -75.039451,16.454533 -75.039451,16.454533 z"
       id="path17" /><path
       style="opacity:1;fill:#165016;fill-opacity:1;fill-rule:evenodd;stroke:none;stroke-width:0.794826;stroke-linecap:square;stroke-miterlimit:10;stroke-dasharray:none;stroke-opacity:1;paint-order:stroke fill markers"
       d="m 10.929179,33.405234 c 0.364269,3.073927 6.01044,55.873062 5.464037,62.382553 -0.546405,6.509473 2.549884,38.333613 4.735498,34.898053 2.185615,-3.43557 6.374709,-28.93104 4.917633,-37.248716 -1.457076,-8.317666 -15.117168,-60.03189 -15.117168,-60.03189 z"
       id="path18" /><path
       style="opacity:1;fill:#165016;fill-opacity:1;fill-rule:evenodd;stroke:none;stroke-width:1.73443;stroke-linecap:square;stroke-miterlimit:10;stroke-dasharray:none;stroke-opacity:1;paint-order:stroke fill markers"
       d="m 138.99448,42.807814 c -10.67477,-9.695957 -18.43824,-16.483141 -8.73389,-16.806336 9.70431,-0.323205 24.26084,-8.403168 18.92346,0.323195 -5.3374,8.726374 -10.18957,16.483141 -10.18957,16.483141 z"
       id="path19" /><path
       style="opacity:1;fill:#165016;fill-opacity:1;fill-rule:evenodd;stroke:none;stroke-width:1.51347;stroke-linecap:square;stroke-miterlimit:10;stroke-dasharray:none;stroke-opacity:1;paint-order:stroke fill markers"
       d="M 96.71455,11.526149 C 88.968666,17.384306 68.442076,26.942355 70.765843,31.875553 73.089609,36.808751 96.71455,11.526149 96.71455,11.526149 Z"
       id="path21" /><path
       style="opacity:1;fill:#165016;fill-opacity:1;fill-rule:evenodd;stroke:none;stroke-width:2.00353;stroke-linecap:square;stroke-miterlimit:10;stroke-dasharray:none;stroke-opacity:1;paint-order:stroke fill markers"
       d="m 157.5475,46.062562 c 13.9283,19.982007 22.72514,30.829382 30.78891,25.120232 8.06376,-5.709132 -27.12357,-24.549305 -27.12357,-24.549305 z"
       id="path22" /><path
       style="opacity:1;fill:#165016;fill-opacity:1;fill-rule:evenodd;stroke:none;stroke-width:0.794826;stroke-linecap:square;stroke-miterlimit:10;stroke-dasharray:none;stroke-opacity:1;paint-order:stroke fill markers"
       d="M 3.279527,6.2823886 C 6.3758144,10.441227 27.685557,23.098554 28.596231,25.991659 29.506904,28.884762 28.960499,44.796828 27.685557,43.711915 26.410615,42.627002 3.279527,6.2823886 3.279527,6.2823886 Z"
       id="path23" /><path
       style="opacity:1;fill:#165016;fill-opacity:1;fill-rule:evenodd;stroke:none;stroke-width:0.794826;stroke-linecap:square;stroke-miterlimit:10;stroke-dasharray:none;stroke-opacity:1;paint-order:stroke fill markers"
       d="m 141.33752,91.267299 c 5.64617,10.487501 6.01045,-1.808191 6.01045,-1.808191 0,0 11.11019,-1.084913 10.56379,0.180822 -0.5464,1.265735 2.73203,10.66832 1.45709,12.11487 -1.27495,1.44655 -9.28887,4.88212 -10.92808,3.07393 -1.6392,-1.80819 -7.10325,-13.561431 -7.10325,-13.561431 z"
       id="path25" /><path
       style="opacity:1;fill:#165016;fill-opacity:1;fill-rule:evenodd;stroke:none;stroke-width:1.17205;stroke-linecap:square;stroke-miterlimit:10;stroke-dasharray:none;stroke-opacity:1;paint-order:stroke fill markers"
       d="m 236.77603,98.668987 c 27.9879,-7.583906 54.01175,-39.669648 57.6944,-28.58548 3.6826,11.084168 -55.97585,30.043943 -55.97585,30.043943 z"
       id="path26" /><path
       style="opacity:1;fill:#165016;fill-opacity:1;fill-rule:evenodd;stroke:none;stroke-width:1.07724;stroke-linecap:square;stroke-miterlimit:10;stroke-dasharray:none;stroke-opacity:1;paint-order:stroke fill markers"
       d="m 344.59968,13.249483 c 6.28759,4.849092 35.25543,13.739102 37.95013,16.971844 2.69469,3.232731 -3.59293,-18.049421 -16.61722,-17.241245 -13.02429,0.808185 -21.33291,0.269401 -21.33291,0.269401 z"
       id="path27" /><path
       style="opacity:1;fill:#165016;fill-opacity:1;fill-rule:evenodd;stroke:none;stroke-width:0.908444;stroke-linecap:square;stroke-miterlimit:10;stroke-dasharray:none;stroke-opacity:1;paint-order:stroke fill markers"
       d="m 386.36016,53.353149 c 11.48553,7.761154 19.55645,19.680066 20.79813,10.532989 1.24166,-9.147076 6.20838,-7.345379 -3.10422,-9.56285 -9.31255,-2.217471 -6.82922,-7.068187 -13.65843,-3.880577 -6.82925,3.187621 -4.03548,2.910438 -4.03548,2.910438 z"
       id="path28" /><path
       style="opacity:1;fill:#165016;fill-opacity:1;fill-rule:evenodd;stroke:none;stroke-width:1.41425;stroke-linecap:square;stroke-miterlimit:10;stroke-dasharray:none;stroke-opacity:1;paint-order:stroke fill markers"
       d="m 456.61245,53.837783 c -12.56332,17.478019 -6.76488,21.362021 -16.10682,22.333021 -9.34197,0.971001 -11.91903,4.855003 -5.47632,-6.473343 6.4427,-11.328346 8.37556,-13.594027 10.63051,-13.594027 2.25495,0 10.95263,-2.265651 10.95263,-2.265651 z"
       id="path29" /><path
       style="opacity:1;fill:#165016;fill-opacity:1;fill-rule:evenodd;stroke:none;stroke-width:1.52579;stroke-linecap:square;stroke-miterlimit:10;stroke-dasharray:none;stroke-opacity:1;paint-order:stroke fill markers"
       d="m 461.34795,33.405234 c 4.88273,8.699338 34.87652,18.094612 36.62035,18.790569 1.74385,0.695945 6.9753,-10.787177 -2.44136,-11.13515 -9.41665,-0.347983 -18.83328,-2.783785 -21.97218,-3.827724 -3.13888,-1.043919 -12.20681,-3.827695 -12.20681,-3.827695 z"
       id="path30" /><path
       style="opacity:1;fill:#d45500;fill-opacity:1;fill-rule:evenodd;stroke:none;stroke-width:0.794826;stroke-linecap:square;stroke-miterlimit:10;stroke-dasharray:none;stroke-opacity:1;paint-order:stroke fill markers"
       d="m 499.23194,72.281308 c 1.82134,4.158838 8.19606,19.890092 8.19606,19.890092 0,0 2.54986,8.67932 -2.91415,1.084912 -5.46404,-7.594398 -5.82833,-4.701295 -5.64619,-9.945046 0.18215,-5.243751 0.36428,-11.029958 0.36428,-11.029958 z"
       id="path31" /><path
       style="opacity:1;fill:#165016;fill-opacity:1;fill-rule:evenodd;stroke:none;stroke-width:2.06932;stroke-linecap:square;stroke-miterlimit:10;stroke-dasharray:none;stroke-opacity:1;paint-order:stroke fill markers"
       d="M 88.70063,32.501145 C 83.54624,48.9582 69.887097,75.80917 71.433417,89.667747 72.979736,103.52631 88.70063,32.501145 88.70063,32.501145 Z"
       id="path40" /></g></svg>
